<?xml version="1.0" encoding="UTF-8"?>
<svg width="150" height="100" xmlns="http://www.w3.org/2000/svg">
  <!-- US Flag (simplified) -->
  <!-- Red stripes -->
  <rect x="0" y="0" width="150" height="100" fill="#B22234"/>
  
  <!-- White stripes -->
  <rect x="0" y="7.69" width="150" height="7.69" fill="#FFFFFF"/>
  <rect x="0" y="23.08" width="150" height="7.69" fill="#FFFFFF"/>
  <rect x="0" y="38.46" width="150" height="7.69" fill="#FFFFFF"/>
  <rect x="0" y="53.85" width="150" height="7.69" fill="#FFFFFF"/>
  <rect x="0" y="69.23" width="150" height="7.69" fill="#FFFFFF"/>
  <rect x="0" y="84.62" width="150" height="7.69" fill="#FFFFFF"/>
  
  <!-- Blue canton -->
  <rect x="0" y="0" width="60" height="53.85" fill="#3C3B6E"/>
  
  <!-- Stars (simplified as dots) -->
  <circle cx="10" cy="8" r="2" fill="#FFFFFF"/>
  <circle cx="20" cy="8" r="2" fill="#FFFFFF"/>
  <circle cx="30" cy="8" r="2" fill="#FFFFFF"/>
  <circle cx="40" cy="8" r="2" fill="#FFFFFF"/>
  <circle cx="50" cy="8" r="2" fill="#FFFFFF"/>
  
  <circle cx="15" cy="18" r="2" fill="#FFFFFF"/>
  <circle cx="25" cy="18" r="2" fill="#FFFFFF"/>
  <circle cx="35" cy="18" r="2" fill="#FFFFFF"/>
  <circle cx="45" cy="18" r="2" fill="#FFFFFF"/>
  
  <circle cx="10" cy="28" r="2" fill="#FFFFFF"/>
  <circle cx="20" cy="28" r="2" fill="#FFFFFF"/>
  <circle cx="30" cy="28" r="2" fill="#FFFFFF"/>
  <circle cx="40" cy="28" r="2" fill="#FFFFFF"/>
  <circle cx="50" cy="28" r="2" fill="#FFFFFF"/>
  
  <circle cx="15" cy="38" r="2" fill="#FFFFFF"/>
  <circle cx="25" cy="38" r="2" fill="#FFFFFF"/>
  <circle cx="35" cy="38" r="2" fill="#FFFFFF"/>
  <circle cx="45" cy="38" r="2" fill="#FFFFFF"/>
  
  <rect x="0" y="0" width="150" height="100" fill="none" stroke="#333" stroke-width="2"/>
</svg>